<?xml version="1.0" standalone="no"?>
<!DOCTYPE svg PUBLIC "-//W3C//DTD SVG 20010904//EN"
 "http://www.w3.org/TR/2001/REC-SVG-20010904/DTD/svg10.dtd">
<svg version="1.0" xmlns="http://www.w3.org/2000/svg"
 width="87.000000pt" height="87.000000pt" viewBox="0 0 87.000000 87.000000"
 preserveAspectRatio="xMidYMid meet">
<metadata>
Created by potrace 1.11, written by Peter Selinger 2001-2013
</metadata>
<g transform="translate(0.000000,87.000000) scale(0.100000,-0.100000)"
fill="#000000" stroke="none">
<path d="M335 848 c-55 -28 -82 -54 -122 -116 -44 -68 -61 -125 -72 -238 -20
-202 60 -393 191 -458 110 -55 211 -23 298 96 24 33 50 58 60 58 10 0 28 15
39 34 17 27 20 43 15 78 -4 23 -11 50 -15 60 -5 9 -11 57 -13 108 -8 147 -52
255 -138 337 -67 64 -166 81 -243 41z"/>
<path d="M82 170 c0 -14 2 -19 5 -12 2 6 2 18 0 25 -3 6 -5 1 -5 -13z"/>
</g>
</svg>
