<svg id="Layer_1" data-name="Layer 1" xmlns="http://www.w3.org/2000/svg" viewBox="0 0 628.71 58.11"><defs><style>.cls-1{fill:#231f20;}.cls-2{fill:none;stroke:#231f20;stroke-linecap:round;stroke-miterlimit:10;stroke-width:4px;}</style></defs><title>section-divider</title><g id="decoration_4" data-name="decoration 4"><path class="cls-1" d="M189.82,846.87l-151.06-2,151.06-2a2,2,0,0,1,.05,4h-0.05Z" transform="translate(-38.76 -806.89)"/><path class="cls-1" d="M516.42,842.87l151.06,2-151.06,2a2,2,0,0,1-.05-4h0.05Z" transform="translate(-38.76 -806.89)"/><path class="cls-2" d="M189.82,844.87h89a4,4,0,0,0,2.83-1.17l11.52-11.52a4,4,0,0,1,5.66,0l29.65,29.65a4,4,0,0,0,5.66,0L349,847a4,4,0,0,0,0-5.66l-9.48-9.48a4,4,0,0,0-5.66,0L325,840.69a4,4,0,0,0,0,5.66l2.64,2.64a4,4,0,0,0,5.66,0l2.83-2.83a4,4,0,0,0,0-5.66l-9.44-9.44-6.51-6.51a4,4,0,0,0-5.66,0l-11.66,11.66-6.55,6.55a4,4,0,0,0,0,5.68l1.44,1.41a4,4,0,0,0,5.64,0l27.76-27.76,12-12a4,4,0,0,1,5.66,0l10.83,10.83a4,4,0,0,1,0,5.66l-6.54,6.54-6.54-6.54a4,4,0,0,1,0-5.66l10.83-10.83a4,4,0,0,1,5.66,0l12,12,27.76,27.76a4,4,0,0,0,5.64,0l1.44-1.41a4,4,0,0,0,0-5.68l-6.55-6.55-11.66-11.66a4,4,0,0,0-5.66,0l-6.51,6.51-9.44,9.44a4,4,0,0,0,0,5.66L373,849a4,4,0,0,0,5.66,0l2.64-2.64a4,4,0,0,0,0-5.66l-8.84-8.84a4,4,0,0,0-5.66,0l-9.48,9.48a4,4,0,0,0,0,5.66l14.84,14.84a4,4,0,0,0,5.66,0l29.65-29.65a4,4,0,0,1,5.66,0l11.52,11.52a4,4,0,0,0,2.83,1.17h89" transform="translate(-38.76 -806.89)"/></g></svg>